<?xml version="1.0" encoding="UTF-8"?>
<svg id="Layer_2" data-name="Layer 2" xmlns="http://www.w3.org/2000/svg" version="1.1" viewBox="0 0 4000 4000">
  <defs>
    <style>
      .cls-1 {
        fill: #fff;
        stroke: #fff;
        stroke-width: 11px;
      }

      .cls-1, .cls-2 {
        stroke-miterlimit: 10;
      }

      .cls-2 {
        fill: #ff7901;
        stroke: #ff7901;
        stroke-width: 6px;
      }
    </style>
  </defs>
  <g>
    <path class="cls-1" d="M795.87,396.33c7.44,0,14.19,3.77,18.05,10.09l541.57,885.16,63.06,103.07,56.17-106.98,69.81-132.96c35.86-68.29,87.03-127.37,147.98-170.87,107.62-76.78,204.72-79.49,213.29-79.58h1.24s1027.39,5.42,1027.39,5.42c88.74,1.23,169.78,31.71,240.87,90.6,53.16,44.04,81.49,88.91,83.85,92.73l405,706.1-261.39,443.95-1385.79-5.03-118.89-.43,59.14,103.14,44.12,76.94.78,1.36.84,1.32c60.77,95.58,139.52,164.39,234.07,204.53,76.22,32.36,141.09,35.85,165.45,35.85,1.34,0,2.55,0,3.65-.03,5.18-.06,10.07-.12,14.88-.12h2.12s1010.13,4.55,1010.13,4.55c5.8.34,11.72.52,17.64.52,36.32,0,75.57-6.51,116.66-19.37,21.04-6.59,41.64-14.58,61.67-23.87l-128.43,223.4c-15.96,27.75-33.96,53.13-53.53,75.44-49.5,56.47-108.9,96.91-176.54,120.18-53.75,18.5-96.5,20.49-112.38,20.49-.92,0-1.74,0-2.46-.02-7.35-.14-14.08-.21-20.61-.21l-1003.62.39c-89.76-.08-167.43-24.68-230.86-73.13-51.14-39.06-79.76-83.31-92.27-106.21-18.98-34.75-33.88-61.47-48.32-86.66L734.05,1006.98l-.2-.35c-18.47-32.33-53.12-52.41-90.43-52.41-18.21,0-36.17,4.81-51.95,13.92l-59.85,34.55c-30.09,17.37-64.22,26.55-98.69,26.55s-68.02-8.89-97.81-25.71c-30.59-17.28-56.12-42.62-73.82-73.27-26.43-45.78-33.45-99.11-19.77-150.17,13.68-51.06,46.43-93.73,92.21-120.16l451.69-260.77c3.26-1.88,6.78-2.83,10.46-2.83M795.87,327.74c-15.22,0-30.64,3.88-44.75,12.02l-451.69,260.77c-127.46,73.59-171.13,236.57-97.54,364.03h0c49.36,85.49,138.93,133.28,231.02,133.28,45.2,0,91.02-11.52,132.98-35.74l59.85-34.55c5.56-3.21,11.65-4.74,17.66-4.73,12.33,0,24.34,6.42,30.88,17.86l.18.31,1026.27,1789.27c16.22,28.29,31.99,56.81,47.62,85.42,29.71,54.4,138.08,214.83,383.26,215.05l1003.71-.39c6.44,0,12.91.07,19.35.2,1.08.02,2.31.03,3.69.03,40.31,0,205.38-9.92,340.5-164.05,23.37-26.65,43.75-55.75,61.41-86.47l271.22-471.76c7.09-12.34-3.17-24.58-14.35-24.58-4.04,0-8.21,1.6-11.71,5.37l-62.64,67.36c-53.52,57.54-120.74,100.95-195.72,124.44-30.71,9.61-63.64,16.23-96.15,16.23-5.12,0-10.24-.16-15.33-.51l-1012.14-4.56c-.81,0-1.62,0-2.43,0-5.25,0-10.51.06-15.77.13-.83.01-1.75.02-2.77.02-39.5,0-216.34-11.53-341.64-208.6l-44.12-76.94,1425.16,5.17,301.59-512.23-425.22-741.36s-125.79-213.7-383.16-217.11l-1027.69-5.41s-.42-.01-1.23-.01c-13.02,0-127.78,2.63-253.51,92.33-70.89,50.58-128.38,117.7-168.87,194.81l-69.81,132.96L872.43,370.62c-16.88-27.59-46.33-42.88-76.56-42.88h0Z"/>
    <path class="cls-1" d="M1677.03,1481.05h0c7.9,0,14.96.27,20.97.79l2.84.25h2.85s995.62,3.9,995.62,3.9c5.24.29,44.34,3.04,94.12,21.27,67.68,24.78,123.58,65.66,166.24,121.53l112.52,195.72-1330.72,5.43-193.45-336.47c37.39-5.81,88.73-12.41,129.01-12.41M1677.03,1412.47c-79.39,0-192.47,22.36-192.47,22.36-32.59,16.51-29.39,34.74-29.39,34.74l246.71,429.12,1488.58-6.08-173.47-301.72c-125.87-168.51-316.08-173.48-316.08-173.48l-996.95-3.89c-8.32-.72-17.38-1.05-26.93-1.05h0Z"/>
  </g>
  <path class="cls-2" d="M2310.26,3303.63c82.72,0,150.02,67.3,150.02,150.02s-67.3,150.02-150.02,150.02-150.02-67.3-150.02-150.02,67.3-150.02,150.02-150.02M2310.26,3235.04c-120.73,0-218.61,97.87-218.61,218.61s97.87,218.61,218.61,218.61,218.61-97.87,218.61-218.61-97.87-218.61-218.61-218.61h0Z"/>
  <path class="cls-2" d="M3005.25,3303.63c82.72,0,150.02,67.3,150.02,150.02s-67.3,150.02-150.02,150.02-150.02-67.3-150.02-150.02,67.3-150.02,150.02-150.02M3005.25,3235.04c-120.73,0-218.61,97.87-218.61,218.61s97.87,218.61,218.61,218.61,218.61-97.87,218.61-218.61-97.87-218.61-218.61-218.61h0Z"/>
</svg>